<svg width="216" height="211" viewBox="0 0 216 211" fill="none" xmlns="http://www.w3.org/2000/svg">
<path d="M194.56 20.2695H42.25C32.5243 20.2695 24.64 28.1538 24.64 37.8795V190.19C24.64 199.915 32.5243 207.8 42.25 207.8H194.56C204.286 207.8 212.17 199.915 212.17 190.19V37.8795C212.17 28.1538 204.286 20.2695 194.56 20.2695Z" fill="#A68A64" stroke="black" stroke-width="6" stroke-linecap="round" stroke-linejoin="round"/>
<path d="M173.58 3.58984H21.27C11.5443 3.58984 3.66003 11.4741 3.66003 21.1998V173.51C3.66003 183.236 11.5443 191.12 21.27 191.12H173.58C183.306 191.12 191.19 183.236 191.19 173.51V21.1998C191.19 11.4741 183.306 3.58984 173.58 3.58984Z" fill="#F4F1ED" stroke="#070707" stroke-width="6" stroke-linecap="round" stroke-linejoin="round"/>
<path d="M76.2101 126.05H139.58L152.28 85H63.5701L76.2101 126.05Z" fill="#C5DCDD"/>
<path d="M31.75 66.2695H45.15C47.1475 66.2687 49.0927 66.9082 50.7 68.0943C52.3072 69.2804 53.4919 70.9506 54.08 72.8595L70.08 124.5H134.61L137.79 137.42C138.03 138.388 138.046 139.398 137.838 140.373C137.629 141.349 137.201 142.264 136.586 143.049C135.971 143.835 135.186 144.47 134.289 144.907C133.392 145.343 132.407 145.57 131.41 145.57H72.74" stroke="#070707" stroke-width="6" stroke-linecap="round" stroke-linejoin="round"/>
<path d="M70 124.499H134.38L147.71 81.3789H56.72L70 124.499Z" stroke="#070707" stroke-width="6" stroke-linecap="round" stroke-linejoin="round"/>
<path d="M110.71 124.499L124.04 81.3789" stroke="#070707" stroke-width="6" stroke-linecap="round" stroke-linejoin="round"/>
<path d="M96.33 124.499L83 81.3789" stroke="#070707" stroke-width="6" stroke-linecap="round" stroke-linejoin="round"/>
<path d="M62.9501 101.529H141.48" stroke="#070707" stroke-width="6" stroke-linecap="round" stroke-linejoin="round"/>
<path d="M80.3301 163.571C83.9254 163.571 86.8401 160.656 86.8401 157.061C86.8401 153.465 83.9254 150.551 80.3301 150.551C76.7347 150.551 73.8201 153.465 73.8201 157.061C73.8201 160.656 76.7347 163.571 80.3301 163.571Z" stroke="#070707" stroke-width="6" stroke-linecap="round" stroke-linejoin="round"/>
<path d="M127.67 163.571C131.265 163.571 134.18 160.656 134.18 157.061C134.18 153.465 131.265 150.551 127.67 150.551C124.075 150.551 121.16 153.465 121.16 157.061C121.16 160.656 124.075 163.571 127.67 163.571Z" stroke="#070707" stroke-width="6" stroke-linecap="round" stroke-linejoin="round"/>
<path d="M102.09 32.0703V65.4003" stroke="#070707" stroke-width="6" stroke-linecap="round" stroke-linejoin="round"/>
<path d="M85.8201 51.0195L101.93 67.1295L117.2 51.8695" stroke="#070707" stroke-width="6" stroke-linecap="round" stroke-linejoin="round"/>
</svg>
